<?xml version="1.0" encoding="utf-8"?>
<!-- Generator: Adobe Illustrator 26.0.1, SVG Export Plug-In . SVG Version: 6.00 Build 0)  -->
<svg version="1.1" id="Ebene_1" xmlns="http://www.w3.org/2000/svg" xmlns:xlink="http://www.w3.org/1999/xlink" x="0px" y="0px"
	 viewBox="0 0 900 110" style="enable-background:new 0 0 900 110;" xml:space="preserve">
<style type="text/css">
	.st0{fill:#0062A7;}
	.st1{fill:#FFFFFF;}
	.st2{fill:none;stroke:#FFFFFF;stroke-width:2;stroke-miterlimit:10;}
</style>
<rect class="st0" width="900" height="110"/>
<g>
	<g>
		<path class="st1" d="M69.25,30.99h-2.94l-1.09,4.4h1.42c1.67,0,3.03,1.11,2.63,2.94c-0.4,1.83-0.46,1.96-0.98,4.12
			c-0.61,2.52-1.83,3.38-3.96,4.07l-16,5.13l-1.62,6.43c0,0,14.35-4.55,18.81-5.98c4.94-1.58,7.57-3.57,8.46-6.66
			c0.27-0.95,0.84-3.09,1.39-5.67C76.54,34.28,72.87,30.99,69.25,30.99z"/>
		<path class="st1" d="M48.14,30.99l-1.08,4.4h5.34l-3.58,14.3l7-2.24l2.71-10.86c0.13-0.54-0.55-1.2-0.55-1.2h5.48l1.1-4.4H48.14z"
			/>
	</g>
	<polygon class="st1" points="241.76,69.05 39.14,66.93 39.16,66.81 239.85,66.79 251.12,21.43 251.24,21.43 	"/>
	<path class="st1" d="M237.22,32.98c0.32,0,0.6-0.02,0.6-0.4c0-0.3-0.27-0.37-0.54-0.37h-0.51v0.77H237.22z M236.77,34.37h-0.38
		v-2.48h0.95c0.58,0,0.87,0.22,0.87,0.71c0,0.44-0.28,0.63-0.64,0.68l0.7,1.09h-0.42l-0.65-1.07h-0.43V34.37z M237.23,34.92
		c0.96,0,1.73-0.76,1.73-1.79c0-1.02-0.77-1.78-1.73-1.78c-0.98,0-1.76,0.76-1.76,1.78C235.47,34.16,236.24,34.92,237.23,34.92
		 M235.04,33.13c0-1.23,1-2.14,2.19-2.14c1.17,0,2.17,0.91,2.17,2.14c0,1.24-1,2.15-2.17,2.15
		C236.04,35.28,235.04,34.37,235.04,33.13"/>
	<path class="st1" d="M112.07,36.31h-2.8c-7.29,0-8.84,4.7-9.92,9.15c-0.72,2.89-0.83,5.78,0.19,7.9c0.99,2.06,3.05,3.4,6.36,3.4
		l8.38,0l1.1-4.45c0,0-6.52,0-7.22,0c-3.16,0-4.55-0.66-3.49-5.01h11.97c0,0,0.41-1.65,0.74-3.01
		C118.37,40.25,116.36,36.31,112.07,36.31z M112.67,43.88h-7.15c0.7-2.98,1.67-3.74,3.97-3.74h0.63
		C113.72,40.14,112.67,43.88,112.67,43.88z"/>
	<path class="st1" d="M156.41,41.28c-0.51,2.05-3.86,15.47-3.86,15.47h-5.87c0,0,3.2-12.79,3.65-14.62
		c0.33-1.33-0.29-1.84-1.38-1.84c-1.62,0-4.87,0-4.87,0s0.71,0.64,0.54,1.3c-0.17,0.66-3.78,15.16-3.78,15.16h-5.87l5.81-23.32
		c0.29-1.22-0.9-2.45-0.9-2.45h7.39l-1.32,5.33h6.76C156.29,36.32,157.11,38.47,156.41,41.28z"/>
	<path class="st1" d="M96.54,35.37c0,0,0.69,0.62,0.53,1.3c-0.17,0.68-5.01,20.08-5.01,20.08h-6.73l5.33-21.38h-7.82l1.08-4.38
		h21.64l-1.09,4.38H96.54z"/>
	<path class="st1" d="M178.96,30.99l-14.74,0c0,0,1.13,1.19,0.9,2.42c-0.83,3.23-5.82,23.34-5.82,23.34h14.11
		c4.95,0,7.11-2.46,8.45-5.65c1.34-3.18,2.65-8.78,3.21-11.36C186.25,34.26,182.57,30.99,178.96,30.99z M178.87,38.31
		c-0.44,1.8-2.07,8.42-2.64,10.65c-0.64,2.48-1.65,3.34-4,3.34l-5.12,0c0,0,3.72-14.9,3.89-15.58c0.17-0.68-0.53-1.35-0.53-1.35
		h5.64C177.87,35.37,179.32,36.49,178.87,38.31z"/>
	<path class="st1" d="M199.68,36.31h-10.67l-0.99,3.98h7.94c0.92,0,1.72,0.55,1.44,1.67l-0.24,0.96h-4.37
		c-3.09,0-7.12,1.18-8.42,6.21c-0.06,0.25-0.12,0.49-0.16,0.72c-0.09,0.41-0.14,0.83-0.14,1.27c0,3.24,2.91,5.63,5.65,5.63
		c3.92,0,9.79,0,9.79,0s3.16-12.74,3.85-15.51C204.07,38.46,203.2,36.31,199.68,36.31z M194.83,52.3h-3.37
		c-1.68,0-3.07-0.63-2.5-2.94c0.58-2.33,2.17-2.78,3.69-2.78h3.6L194.83,52.3z"/>
	<path class="st1" d="M231.82,36.31h-10.67l-0.99,3.98h7.94c0.92,0,1.72,0.55,1.44,1.67l-0.24,0.96h-4.37
		c-3.09,0-7.12,1.18-8.42,6.21c-0.06,0.25-0.12,0.49-0.16,0.72c-0.09,0.41-0.14,0.83-0.14,1.27c0,3.24,2.91,5.63,5.65,5.63
		c3.92,0,4,0,4,0h5.79c0,0,3.16-12.74,3.85-15.51C236.2,38.46,235.33,36.31,231.82,36.31z M226.97,52.3h-3.37
		c-1.68,0-3.07-0.63-2.5-2.94c0.58-2.33,2.17-2.78,3.69-2.78h3.6L226.97,52.3z"/>
	<path class="st1" d="M124.95,45.52c1-3.93,2.73-5.23,5.03-5.23l6.44,0l0.98-3.98h-8.39c-7.29,0-8.84,4.7-9.92,9.15
		c-0.72,2.89-0.83,5.78,0.19,7.9c0.99,2.06,3.05,3.4,6.36,3.4l6.7,0l1.09-4.45c0,0-4.97,0.01-5.67,0.01
		C124.2,52.3,123.94,49.45,124.95,45.52z"/>
	<path class="st1" d="M211.35,52.3h3.17l-1.1,4.45h-7.13c-1.25,0-2.52-1.03-2.01-3.1c0.4-1.66,3.33-13.36,3.33-13.36h-2.59
		l0.99-3.98h2.61l0.38-1.53c0.28-1.14-0.9-2.43-0.9-2.43h7.29l-0.99,3.97h3.76l-1.04,3.97h-4.55c0,0,0.67,0.67,0.52,1.29
		c-0.07,0.28-1.9,7.6-2.39,9.53C210.55,51.68,210.61,52.3,211.35,52.3z"/>
	<g>
		<path class="st1" d="M90.01,75.2l1.87,10.34h-1.42l-0.48-3.12h-4.36l-1.81,3.12h-1.52L88.5,75.2H90.01z M89.81,81.27l-0.77-4.85
			h-0.03l-2.77,4.85H89.81z"/>
		<path class="st1" d="M101.85,76.36l-1.94,9.19h-1.38l1.94-9.19h-3.48l0.25-1.16h8.35l-0.26,1.16H101.85z"/>
		<path class="st1" d="M110.18,75.2c1.28,0,2.26,0.35,2.92,1.06c0.66,0.71,0.99,1.67,0.99,2.9c0,0.98-0.14,1.86-0.42,2.64
			c-0.28,0.79-0.67,1.46-1.17,2.01c-0.5,0.56-1.11,0.98-1.81,1.28c-0.71,0.3-1.49,0.45-2.35,0.45h-3.97l2.19-10.34H110.18z
			 M108.35,84.39c0.73,0,1.37-0.15,1.92-0.44c0.55-0.29,1-0.68,1.36-1.16c0.36-0.48,0.63-1.02,0.81-1.63
			c0.18-0.61,0.27-1.23,0.27-1.85c0-0.38-0.04-0.74-0.12-1.1c-0.08-0.36-0.23-0.67-0.44-0.94s-0.5-0.49-0.88-0.65
			c-0.37-0.16-0.84-0.25-1.41-0.25h-2.2l-1.69,8.03H108.35z"/>
		<path class="st1" d="M125.51,77.24c-0.11-0.28-0.27-0.5-0.48-0.67c-0.21-0.17-0.46-0.29-0.76-0.35c-0.3-0.07-0.63-0.1-0.99-0.1
			c-0.25,0-0.52,0.03-0.8,0.09c-0.28,0.06-0.54,0.16-0.78,0.3c-0.24,0.14-0.43,0.31-0.59,0.52c-0.15,0.21-0.23,0.47-0.23,0.78
			c0,0.25,0.04,0.47,0.13,0.64c0.09,0.18,0.21,0.33,0.36,0.46c0.15,0.13,0.33,0.24,0.54,0.33c0.21,0.09,0.43,0.16,0.66,0.23
			l1.39,0.38c0.32,0.09,0.63,0.2,0.93,0.33s0.57,0.3,0.8,0.51c0.23,0.21,0.42,0.47,0.56,0.79c0.14,0.32,0.21,0.71,0.21,1.17
			c0,0.54-0.12,1.01-0.37,1.4c-0.25,0.39-0.56,0.71-0.95,0.97c-0.39,0.26-0.82,0.45-1.3,0.57c-0.48,0.13-0.95,0.19-1.41,0.19
			c-0.62,0-1.19-0.07-1.71-0.21c-0.52-0.14-0.96-0.35-1.33-0.64c-0.36-0.29-0.64-0.66-0.83-1.12c-0.19-0.46-0.26-1.01-0.21-1.64
			h1.38c-0.02,0.46,0.03,0.85,0.16,1.17c0.13,0.32,0.31,0.57,0.56,0.77c0.25,0.19,0.54,0.33,0.89,0.41
			c0.35,0.08,0.73,0.12,1.15,0.12c0.32,0,0.63-0.04,0.95-0.12c0.31-0.08,0.59-0.2,0.83-0.36c0.24-0.16,0.44-0.36,0.59-0.62
			c0.15-0.25,0.22-0.55,0.22-0.9c0-0.26-0.05-0.49-0.14-0.67c-0.1-0.19-0.23-0.35-0.4-0.48c-0.17-0.13-0.36-0.24-0.59-0.33
			c-0.22-0.09-0.46-0.16-0.71-0.23l-1.41-0.38c-0.31-0.09-0.6-0.2-0.88-0.34c-0.28-0.14-0.53-0.31-0.74-0.52
			c-0.21-0.21-0.38-0.45-0.51-0.74c-0.13-0.28-0.19-0.62-0.19-1.01c0-0.5,0.11-0.94,0.33-1.31c0.22-0.37,0.51-0.68,0.86-0.93
			c0.35-0.25,0.75-0.44,1.2-0.56c0.45-0.13,0.91-0.19,1.37-0.19c0.51,0,1,0.07,1.46,0.2c0.46,0.13,0.86,0.33,1.21,0.59
			c0.35,0.27,0.62,0.61,0.82,1.02c0.2,0.42,0.29,0.91,0.27,1.49h-1.38C125.67,77.85,125.62,77.51,125.51,77.24z"/>
		<path class="st1" d="M128.32,75.2h1.46l2.12,5.01l3.93-5.01h1.59l-5.01,6.19l-0.9,4.16h-1.35l0.88-4.16L128.32,75.2z"/>
		<path class="st1" d="M139.8,75.2l3.69,8.56h0.03l1.72-8.56h1.33l-2.19,10.34h-1.48l-3.67-8.5h-0.03l-1.75,8.5h-1.33l2.19-10.34
			H139.8z"/>
		<path class="st1" d="M150.09,75.2l3.69,8.56h0.03l1.72-8.56h1.33l-2.19,10.34h-1.48l-3.67-8.5h-0.03l-1.75,8.5h-1.33l2.19-10.34
			H150.09z"/>
		<path class="st1" d="M166.03,75.2l-0.23,1.16h-5.75l-0.69,3.29h5.36l-0.23,1.16h-5.38l-0.75,3.58h5.82l-0.26,1.16h-7.2l2.19-10.34
			H166.03z"/>
		<path class="st1" d="M166.65,75.2h1.48l1.91,4.09l3.32-4.09h1.55l-4.26,5.13l2.62,5.22h-1.42l-2.09-4.38l-3.53,4.38h-1.56
			l4.48-5.4L166.65,75.2z"/>
		<path class="st1" d="M185.85,84.79c-0.76,0.66-1.77,0.99-3.05,0.99c-1.42,0-2.51-0.39-3.28-1.18c-0.77-0.79-1.15-1.9-1.15-3.34
			c0-0.84,0.13-1.64,0.39-2.4c0.26-0.76,0.64-1.43,1.12-2.01c0.49-0.58,1.08-1.04,1.79-1.38c0.71-0.34,1.5-0.51,2.38-0.51
			c0.56,0,1.08,0.08,1.56,0.22c0.48,0.15,0.89,0.37,1.25,0.67c0.35,0.29,0.63,0.67,0.83,1.12c0.2,0.45,0.3,0.97,0.3,1.57h-1.38
			c0-0.81-0.24-1.42-0.72-1.82c-0.48-0.4-1.09-0.6-1.85-0.6c-0.72,0-1.36,0.15-1.89,0.46s-0.98,0.7-1.34,1.18
			c-0.36,0.48-0.62,1.03-0.8,1.64c-0.18,0.61-0.27,1.23-0.27,1.86c0,0.5,0.06,0.96,0.19,1.38c0.13,0.42,0.31,0.77,0.57,1.07
			c0.25,0.29,0.57,0.52,0.95,0.69c0.38,0.16,0.83,0.25,1.36,0.25c0.85,0,1.54-0.22,2.07-0.67c0.53-0.45,0.91-1.08,1.13-1.9h1.38
			C187.12,83.21,186.61,84.12,185.85,84.79z"/>
		<path class="st1" d="M188.64,80.82c0.19-0.57,0.46-1.07,0.83-1.51c0.36-0.43,0.8-0.78,1.32-1.04c0.52-0.26,1.1-0.39,1.76-0.39
			c1.01,0,1.79,0.26,2.32,0.79c0.53,0.53,0.8,1.3,0.8,2.31c0,0.61-0.09,1.2-0.28,1.77c-0.18,0.57-0.45,1.07-0.81,1.51
			c-0.36,0.44-0.79,0.79-1.3,1.05c-0.51,0.26-1.1,0.39-1.75,0.39c-0.49,0-0.93-0.08-1.33-0.23c-0.39-0.15-0.72-0.37-0.99-0.64
			c-0.27-0.28-0.48-0.6-0.62-0.99c-0.14-0.38-0.22-0.8-0.22-1.25C188.35,81.98,188.45,81.39,188.64,80.82z M190.11,84.07
			c0.35,0.38,0.86,0.57,1.54,0.57c0.45,0,0.85-0.12,1.2-0.35c0.34-0.23,0.63-0.52,0.87-0.88c0.24-0.35,0.42-0.74,0.54-1.15
			c0.12-0.42,0.18-0.81,0.18-1.17c0-0.29-0.04-0.57-0.12-0.83c-0.08-0.26-0.2-0.49-0.36-0.67c-0.16-0.19-0.37-0.34-0.62-0.45
			c-0.25-0.11-0.54-0.17-0.88-0.17c-0.47,0-0.89,0.12-1.25,0.35c-0.36,0.23-0.66,0.52-0.9,0.88c-0.24,0.35-0.42,0.74-0.54,1.17
			c-0.12,0.43-0.18,0.83-0.18,1.22C189.58,83.19,189.76,83.69,190.11,84.07z"/>
		<path class="st1" d="M198.91,78.06l-0.28,1.12l0.03,0.03c0.32-0.41,0.7-0.73,1.15-0.96c0.45-0.24,0.93-0.35,1.46-0.35
			c0.47,0,0.88,0.1,1.22,0.3c0.34,0.2,0.56,0.55,0.67,1.04c0.29-0.41,0.66-0.73,1.12-0.98c0.46-0.25,0.94-0.37,1.44-0.37
			c0.26,0,0.52,0.03,0.77,0.09c0.25,0.06,0.48,0.16,0.67,0.29c0.2,0.13,0.35,0.3,0.47,0.51c0.12,0.21,0.17,0.47,0.17,0.78
			c0,0.22-0.02,0.47-0.07,0.75c-0.05,0.28-0.1,0.53-0.15,0.74l-0.94,4.49h-1.23l1.04-4.75c0.03-0.12,0.06-0.25,0.08-0.41
			c0.02-0.16,0.04-0.29,0.04-0.4c0-0.29-0.11-0.53-0.33-0.72c-0.22-0.19-0.49-0.29-0.82-0.29c-0.17,0-0.35,0.03-0.53,0.09
			c-0.18,0.06-0.35,0.13-0.51,0.22c-0.16,0.09-0.32,0.2-0.46,0.33c-0.14,0.13-0.27,0.26-0.38,0.39c-0.2,0.22-0.35,0.48-0.45,0.77
			s-0.18,0.59-0.25,0.91l-0.83,3.87h-1.23l0.9-4.27c0.07-0.29,0.12-0.56,0.17-0.81c0.04-0.25,0.07-0.42,0.07-0.51
			c0-0.31-0.09-0.55-0.27-0.72c-0.18-0.17-0.44-0.26-0.78-0.26c-0.34,0-0.67,0.1-1.01,0.29c-0.33,0.19-0.61,0.42-0.83,0.67
			c-0.26,0.25-0.44,0.5-0.54,0.76c-0.1,0.26-0.18,0.57-0.26,0.93l-0.84,3.93h-1.22l1.58-7.49H198.91z"/>
		<path class="st1" d="M211.06,78.06l-0.26,1.07h0.03c0.37-0.48,0.75-0.81,1.14-0.99c0.39-0.17,0.84-0.26,1.34-0.26
			c0.48,0,0.91,0.08,1.27,0.22c0.36,0.15,0.67,0.36,0.92,0.63c0.25,0.27,0.44,0.59,0.57,0.97c0.12,0.38,0.19,0.79,0.19,1.25
			c0,0.57-0.09,1.14-0.28,1.7c-0.19,0.56-0.46,1.07-0.81,1.53c-0.35,0.45-0.79,0.82-1.3,1.1c-0.52,0.28-1.1,0.42-1.76,0.42
			c-0.22,0-0.46-0.02-0.7-0.06c-0.25-0.04-0.48-0.11-0.69-0.21c-0.22-0.1-0.41-0.24-0.58-0.41c-0.17-0.17-0.29-0.38-0.35-0.63h-0.03
			l-0.8,4h-1.2l2.17-10.34H211.06z M214.56,79.5c-0.3-0.36-0.79-0.54-1.47-0.54c-0.46,0-0.88,0.12-1.25,0.36
			c-0.37,0.24-0.67,0.55-0.92,0.91c-0.25,0.37-0.43,0.77-0.57,1.2c-0.13,0.43-0.2,0.85-0.2,1.25c0,0.56,0.16,1.02,0.48,1.39
			c0.32,0.37,0.79,0.55,1.4,0.55c0.49,0,0.92-0.11,1.29-0.34c0.37-0.23,0.68-0.52,0.93-0.88c0.25-0.36,0.44-0.75,0.57-1.19
			c0.12-0.43,0.19-0.86,0.19-1.27C215.01,80.35,214.86,79.86,214.56,79.5z"/>
		<path class="st1" d="M217.99,79.24c0.2-0.3,0.44-0.56,0.73-0.76c0.29-0.2,0.62-0.35,0.99-0.45c0.37-0.1,0.75-0.15,1.14-0.15
			c0.37,0,0.71,0.03,1.04,0.09c0.33,0.06,0.62,0.16,0.87,0.3c0.25,0.15,0.45,0.34,0.6,0.59c0.15,0.25,0.22,0.56,0.22,0.93
			c0,0.21-0.03,0.44-0.08,0.69c-0.05,0.25-0.1,0.47-0.15,0.67l-0.48,2.04c-0.03,0.15-0.07,0.33-0.12,0.52
			c-0.05,0.19-0.08,0.38-0.08,0.55c0,0.17,0.03,0.29,0.1,0.36c0.07,0.07,0.15,0.1,0.26,0.1c0.06,0,0.12-0.01,0.2-0.04
			c0.07-0.02,0.14-0.05,0.2-0.06l-0.19,0.91c-0.1,0.04-0.22,0.07-0.37,0.11c-0.15,0.03-0.28,0.05-0.38,0.05
			c-0.34,0-0.59-0.09-0.77-0.28c-0.17-0.18-0.24-0.44-0.2-0.77l-0.03-0.03c-0.26,0.35-0.58,0.61-0.97,0.8
			c-0.39,0.18-0.9,0.28-1.54,0.28c-0.32,0-0.62-0.04-0.89-0.11c-0.28-0.07-0.51-0.19-0.72-0.36c-0.2-0.17-0.36-0.39-0.48-0.65
			c-0.12-0.27-0.18-0.59-0.18-0.98c0-0.55,0.12-0.98,0.36-1.29c0.24-0.31,0.54-0.54,0.91-0.7c0.37-0.16,0.77-0.27,1.22-0.33
			c0.44-0.06,0.87-0.11,1.29-0.15c0.33-0.03,0.61-0.06,0.85-0.09c0.24-0.03,0.43-0.09,0.59-0.17s0.27-0.19,0.34-0.33
			c0.07-0.15,0.11-0.34,0.11-0.59c0-0.2-0.05-0.37-0.15-0.49c-0.1-0.13-0.22-0.22-0.36-0.3c-0.14-0.07-0.31-0.12-0.48-0.15
			c-0.18-0.03-0.35-0.04-0.51-0.04c-0.23,0-0.46,0.02-0.69,0.07s-0.43,0.13-0.62,0.24c-0.18,0.11-0.34,0.25-0.46,0.42
			c-0.13,0.17-0.21,0.37-0.25,0.62h-1.23C217.66,79.9,217.79,79.54,217.99,79.24z M218.34,84.37c0.28,0.17,0.59,0.26,0.93,0.26
			c0.98,0,1.68-0.33,2.1-0.99c0.2-0.28,0.34-0.58,0.41-0.91c0.07-0.33,0.15-0.67,0.24-1.01h-0.03c-0.17,0.13-0.39,0.21-0.66,0.27
			c-0.27,0.05-0.55,0.09-0.85,0.12c-0.3,0.03-0.6,0.07-0.91,0.11c-0.3,0.04-0.58,0.11-0.82,0.21c-0.24,0.1-0.44,0.23-0.59,0.41
			c-0.15,0.18-0.24,0.43-0.25,0.75C217.92,83.94,218.06,84.2,218.34,84.37z"/>
		<path class="st1" d="M226.88,78.06l-0.23,1.13h0.03c0.31-0.43,0.7-0.76,1.17-0.98c0.47-0.22,0.97-0.33,1.49-0.33
			c0.71,0,1.23,0.15,1.57,0.46c0.34,0.31,0.51,0.8,0.51,1.46c0,0.16-0.02,0.38-0.06,0.64c-0.04,0.26-0.09,0.54-0.16,0.83l-0.91,4.27
			h-1.23l0.96-4.38c0.01-0.08,0.02-0.17,0.04-0.27c0.02-0.1,0.04-0.21,0.06-0.32c0.02-0.11,0.04-0.22,0.05-0.32
			c0.01-0.1,0.02-0.19,0.02-0.25c0-0.36-0.13-0.62-0.38-0.79c-0.25-0.17-0.56-0.25-0.93-0.25c-0.34,0-0.67,0.08-1.01,0.25
			c-0.33,0.16-0.62,0.37-0.85,0.62c-0.22,0.19-0.4,0.43-0.52,0.7c-0.13,0.28-0.23,0.56-0.3,0.86l-0.87,4.14h-1.22l1.56-7.49H226.88z
			"/>
		<path class="st1" d="M233.96,87.49c-0.15,0.22-0.32,0.41-0.51,0.57c-0.18,0.16-0.39,0.28-0.62,0.38c-0.23,0.09-0.5,0.14-0.81,0.14
			c-0.15,0-0.29-0.02-0.45-0.05c-0.15-0.03-0.29-0.08-0.41-0.14l0.22-1c0.1,0.06,0.21,0.11,0.35,0.14c0.14,0.04,0.25,0.06,0.35,0.06
			c0.28,0,0.51-0.08,0.68-0.22c0.17-0.15,0.33-0.35,0.48-0.59l0.75-1.23l-1.32-7.49h1.32l0.87,5.95h0.03l3.14-5.95h1.35l-4.96,8.75
			C234.27,87.05,234.12,87.28,233.96,87.49z"/>
	</g>
</g>
<g>
	<path class="st1" d="M337.91,44.47c1.4,0.69,2.56,1.79,3.48,3.28l-3.68,3.16c-0.42-1.22-1.07-2.14-1.96-2.74
		c-0.89-0.6-2.08-0.9-3.58-0.9c-1.36,0-2.45,0.26-3.26,0.77c-0.81,0.51-1.27,1.18-1.39,2.02c-0.11,0.77,0.18,1.38,0.86,1.84
		c0.68,0.45,1.98,0.85,3.88,1.19c1.99,0.39,3.54,0.86,4.66,1.43c1.12,0.57,1.9,1.27,2.33,2.13c0.43,0.85,0.56,1.91,0.38,3.18
		c-0.2,1.38-0.76,2.58-1.68,3.59c-0.93,1.01-2.12,1.79-3.6,2.33s-3.1,0.82-4.89,0.82c-2.47,0-4.45-0.35-5.92-1.04
		c-1.48-0.69-2.6-1.74-3.38-3.15l3.26-3.33c0.64,1.38,1.47,2.34,2.48,2.87c1.01,0.53,2.32,0.8,3.93,0.8c1.45,0,2.59-0.23,3.41-0.68
		c0.82-0.45,1.3-1.1,1.41-1.94c0.09-0.61-0.2-1.12-0.85-1.53c-0.66-0.41-1.88-0.79-3.66-1.16c-2.05-0.43-3.66-0.94-4.83-1.53
		c-1.18-0.59-1.99-1.32-2.43-2.18c-0.44-0.86-0.58-1.93-0.4-3.2c0.19-1.34,0.72-2.54,1.6-3.62c0.88-1.08,2.06-1.92,3.54-2.53
		c1.48-0.61,3.16-0.92,5.05-0.92C334.77,43.44,336.51,43.78,337.91,44.47z"/>
	<path class="st1" d="M354.46,65.17c-0.61,0.43-1.34,0.77-2.2,1.02c-0.86,0.25-1.75,0.37-2.66,0.37c-3.79,0-5.44-1.71-4.95-5.14
		l1.24-8.74h-3.09l0.49-3.47h3.09l0.56-3.91l4.84-1.29l-0.74,5.2h5.51l-0.49,3.47h-5.51l-1.13,7.99c-0.22,1.56,0.45,2.35,2.01,2.35
		c1,0,1.92-0.32,2.75-0.95L354.46,65.17z"/>
	<path class="st1" d="M371.1,49.25l-1.16,4.08c-0.47-0.34-1.16-0.51-2.07-0.51c-1.11,0-2.13,0.4-3.05,1.21
		c-0.92,0.8-1.48,1.93-1.69,3.38l-1.25,8.81h-4.66l2.41-17.01h4.05l-0.17,3.33c1.28-2.45,3.21-3.67,5.79-3.67
		C370.11,48.88,370.71,49,371.1,49.25z"/>
	<path class="st1" d="M387.95,59.49h-12.04c0.14,2.4,1.38,3.61,3.74,3.61c0.98,0,1.81-0.18,2.49-0.54c0.69-0.36,1.2-0.88,1.55-1.56
		l3.61,1.39c-0.74,1.36-1.8,2.4-3.18,3.11c-1.38,0.71-3.04,1.07-4.97,1.07c-2.81,0-4.88-0.78-6.2-2.33
		c-1.32-1.55-1.78-3.72-1.39-6.51c0.4-2.79,1.45-4.96,3.17-6.51c1.72-1.55,3.94-2.33,6.66-2.33c2.63,0,4.55,0.76,5.75,2.28
		c1.2,1.52,1.6,3.69,1.2,6.5C388.26,58.29,388.12,58.9,387.95,59.49z M378.03,53.3c-0.76,0.66-1.33,1.63-1.69,2.92h7.92
		c0-1.27-0.29-2.24-0.88-2.91c-0.59-0.67-1.42-1-2.51-1C379.74,52.31,378.79,52.64,378.03,53.3z"/>
	<path class="st1" d="M408.16,63.27l-0.74,2.82c-0.68,0.32-1.44,0.48-2.28,0.48c-2.18,0-3.36-0.85-3.55-2.55
		c-0.62,0.84-1.48,1.47-2.58,1.91c-1.1,0.43-2.37,0.65-3.8,0.65c-1.66,0-2.89-0.37-3.72-1.12c-0.82-0.75-1.14-1.83-0.94-3.23
		c0.39-2.77,2.86-4.56,7.4-5.37l4.19-0.78l0.12-0.82c0.13-0.91-0.02-1.63-0.46-2.16s-1.11-0.8-2.01-0.8c-1.04,0-1.92,0.23-2.65,0.68
		c-0.72,0.45-1.28,1.19-1.67,2.21l-3.48-1.56c0.57-1.47,1.55-2.63,2.94-3.47c1.39-0.84,3.1-1.26,5.14-1.26
		c2.43,0,4.24,0.53,5.46,1.58c1.21,1.05,1.67,2.61,1.38,4.68l-0.99,6.97c-0.06,0.45-0.01,0.78,0.17,0.99c0.18,0.2,0.48,0.3,0.91,0.3
		C407.46,63.4,407.85,63.36,408.16,63.27z M399.96,62.67c0.9-0.49,1.4-1.15,1.52-1.99l0.25-1.77l-3.76,0.82
		c-0.8,0.18-1.4,0.43-1.82,0.73s-0.66,0.73-0.74,1.28c-0.08,0.54,0.03,0.96,0.33,1.24c0.3,0.28,0.76,0.42,1.37,0.42
		C398.12,63.4,399.07,63.16,399.96,62.67z"/>
	<path class="st1" d="M438.43,50.48c0.99,1.07,1.35,2.6,1.07,4.59l-1.58,11.16h-4.66l1.45-10.24c0.17-1.18,0.03-2.05-0.41-2.6
		c-0.44-0.55-1.12-0.83-2.02-0.83c-1.09,0-2.04,0.4-2.86,1.19c-0.81,0.79-1.32,1.9-1.53,3.33l-1.3,9.15h-4.66l1.45-10.24
		c0.17-1.18,0.03-2.05-0.41-2.6c-0.44-0.55-1.13-0.83-2.06-0.83c-1.02,0-1.96,0.39-2.8,1.17c-0.85,0.78-1.38,1.94-1.6,3.49
		l-1.28,9.01h-4.66l2.41-17.01h4.18l-0.29,3.03c0.72-1.11,1.62-1.95,2.69-2.52c1.07-0.57,2.21-0.85,3.44-0.85
		c1.27,0,2.36,0.29,3.26,0.88c0.9,0.59,1.5,1.44,1.8,2.55c0.7-1.11,1.62-1.96,2.74-2.55c1.13-0.59,2.3-0.88,3.53-0.88
		C436.06,48.88,437.43,49.41,438.43,50.48z"/>
	<path class="st1" d="M461.52,44.85c1.43,0.94,2.45,2.28,3.05,4.01c0.6,1.73,0.74,3.78,0.4,6.14c-0.33,2.36-1.05,4.4-2.15,6.14
		c-1.1,1.73-2.49,3.07-4.19,4.01c-1.7,0.94-3.6,1.41-5.71,1.41c-2.11,0-3.88-0.47-5.31-1.41c-1.43-0.94-2.45-2.28-3.05-4.01
		c-0.6-1.74-0.74-3.78-0.4-6.14c0.33-2.36,1.05-4.4,2.15-6.14c1.1-1.73,2.49-3.07,4.19-4.01c1.7-0.94,3.6-1.41,5.71-1.41
		S460.09,43.91,461.52,44.85z M449.98,48.38c-1.58,1.6-2.56,3.8-2.96,6.62c-0.4,2.81-0.04,5.02,1.08,6.62
		c1.12,1.6,2.85,2.4,5.19,2.4c2.33,0,4.29-0.8,5.87-2.4s2.56-3.8,2.96-6.62c0.4-2.81,0.04-5.02-1.08-6.62
		c-1.12-1.6-2.85-2.4-5.19-2.4C453.51,45.99,451.56,46.79,449.98,48.38z"/>
	<path class="st1" d="M483.94,50.54c1.09,1.11,1.49,2.71,1.19,4.8l-1.54,10.88h-2.72l1.41-9.93c0.25-1.77,0.05-3.05-0.59-3.84
		s-1.61-1.19-2.88-1.19c-0.91,0-1.79,0.2-2.63,0.59c-0.85,0.4-1.59,1.04-2.23,1.94c-0.64,0.9-1.05,2.02-1.25,3.38l-1.28,9.05h-2.72
		l2.41-17.01h2.38l-0.21,2.65c0.71-1.02,1.6-1.77,2.67-2.26s2.22-0.73,3.47-0.73C481.34,48.88,482.85,49.43,483.94,50.54z"/>
	<path class="st1" d="M505.26,58.74h-12.82c-0.09,1.72,0.3,3.06,1.15,4.01c0.85,0.95,2.06,1.43,3.62,1.43c1.25,0,2.32-0.21,3.2-0.65
		c0.89-0.43,1.54-1.05,1.95-1.87l2.11,1.19c-0.85,1.2-1.89,2.12-3.11,2.76c-1.22,0.63-2.72,0.95-4.49,0.95
		c-2.56,0-4.46-0.78-5.7-2.35c-1.24-1.57-1.66-3.73-1.27-6.5c0.39-2.77,1.4-4.93,3.01-6.5c1.62-1.56,3.71-2.35,6.27-2.35
		c1.59,0,2.91,0.35,3.96,1.05c1.06,0.7,1.79,1.66,2.21,2.86c0.42,1.2,0.52,2.55,0.31,4.05C505.58,57.47,505.44,58.11,505.26,58.74z
		 M495.03,52.59c-1.04,0.88-1.78,2.13-2.21,3.74h10.31c0.04-1.59-0.3-2.83-1.04-3.72c-0.74-0.9-1.82-1.34-3.25-1.34
		C497.34,51.26,496.07,51.7,495.03,52.59z"/>
	<path class="st1" d="M519.57,45.61h-3.4L514.84,55h-2.38l1.33-9.39h-3.43l0.26-1.84h9.22L519.57,45.61z M534.19,43.78L532.59,55
		h-2.35l0.76-5.37l0.66-2.96h-0.03l-0.44,0.92L527.35,55h-1.7l-1.77-7.41l-0.17-0.92h-0.03l-0.18,2.96L522.73,55h-2.35l1.59-11.22
		h2.99l1.44,6.12l0.47,2.18h0.07l1.06-2.18l3.22-6.12H534.19z"/>
</g>
<g>
	<path class="st1" d="M592.9,66c-1.76,1.08-3.7,1.62-5.81,1.62c-2.11,0-3.88-0.47-5.31-1.41c-1.43-0.94-2.45-2.28-3.05-4.01
		c-0.6-1.74-0.74-3.78-0.4-6.14c0.33-2.34,1.05-4.38,2.15-6.12c1.1-1.75,2.5-3.09,4.19-4.03c1.7-0.94,3.58-1.41,5.64-1.41
		c2.15,0,3.9,0.44,5.24,1.33c1.34,0.88,2.25,2.19,2.73,3.91l-2.87,1.26c-0.31-1.31-0.9-2.3-1.76-2.96c-0.86-0.66-2.03-0.99-3.5-0.99
		c-1.54,0-2.94,0.36-4.2,1.07c-1.26,0.71-2.3,1.75-3.13,3.11c-0.83,1.36-1.37,2.97-1.64,4.83c-0.4,2.81-0.04,5.02,1.08,6.62
		c1.12,1.6,2.85,2.4,5.19,2.4c1.52,0,2.89-0.38,4.11-1.16c1.22-0.77,2.17-1.9,2.86-3.4l2.58,1.02
		C596.03,63.44,594.67,64.93,592.9,66z"/>
	<path class="st1" d="M602.11,62.72c-0.12,0.86-0.08,1.46,0.14,1.79c0.21,0.33,0.67,0.49,1.38,0.49c0.48,0,0.89-0.03,1.26-0.1
		c0.36-0.07,0.79-0.19,1.29-0.37l-0.81,2.62c-0.79,0.32-1.66,0.48-2.58,0.48c-1.38,0-2.36-0.37-2.92-1.12
		c-0.56-0.75-0.73-1.89-0.51-3.43l2.93-20.61h2.72L602.11,62.72z"/>
	<path class="st1" d="M622.59,52.28c1.24,1.56,1.66,3.73,1.27,6.5c-0.39,2.77-1.43,4.93-3.12,6.5c-1.68,1.56-3.81,2.35-6.37,2.35
		c-2.56,0-4.46-0.78-5.7-2.35c-1.24-1.57-1.66-3.73-1.27-6.5c0.39-2.77,1.43-4.93,3.12-6.5s3.81-2.35,6.37-2.35
		C619.44,49.93,621.35,50.72,622.59,52.28z M612.26,54.01c-1.14,1.16-1.85,2.74-2.14,4.76c-0.29,2.02-0.02,3.6,0.79,4.76
		c0.81,1.16,2.08,1.74,3.8,1.74c1.72,0,3.15-0.58,4.29-1.74c1.14-1.16,1.85-2.74,2.14-4.76c0.29-2.02,0.02-3.61-0.79-4.76
		c-0.81-1.16-2.08-1.73-3.8-1.73C614.83,52.28,613.39,52.86,612.26,54.01z"/>
	<path class="st1" d="M643.02,50.27l-2.41,17.01h-2.38l0.2-2.58c-1.41,1.95-3.58,2.92-6.5,2.92c-1.84,0-3.27-0.51-4.29-1.53
		c-1.02-1.02-1.39-2.59-1.09-4.69l1.58-11.12h2.72l-1.48,10.41c-0.24,1.66-0.06,2.83,0.52,3.52c0.58,0.69,1.53,1.04,2.85,1.04
		c1.56,0,2.93-0.48,4.1-1.43c1.17-0.95,1.88-2.38,2.16-4.29l1.31-9.25H643.02z"/>
	<path class="st1" d="M663.52,42.45L660,67.28h-2.38l0.25-2.96c-0.64,1-1.52,1.8-2.64,2.4c-1.12,0.6-2.33,0.9-3.65,0.9
		c-2.38,0-4.16-0.79-5.33-2.36s-1.56-3.74-1.17-6.48c0.39-2.74,1.39-4.9,3.01-6.48c1.62-1.57,3.62-2.36,6-2.36
		c1.25,0,2.33,0.27,3.24,0.82s1.57,1.27,1.99,2.18l1.49-10.48H663.52z M656.36,63.54c1.12-1.13,1.82-2.65,2.09-4.56l0.06-0.41
		c0.27-1.91,0-3.42-0.8-4.56s-2.02-1.7-3.65-1.7c-1.66,0-3.04,0.58-4.16,1.75c-1.12,1.17-1.82,2.74-2.1,4.71
		c-0.28,1.97-0.03,3.54,0.76,4.71s2.01,1.75,3.66,1.75C653.86,65.24,655.24,64.67,656.36,63.54z"/>
	<path class="st1" d="M696.05,67.28h-2.58l2-14.11l1.15-5.92h-0.03l-10.22,20.03h-2.31l-4.54-20.03h-0.03l-0.53,5.92l-2,14.11h-2.58
		l3.19-22.45h4.18l3,13.64l0.91,5.61h0.07l2.53-5.58l6.84-13.67h4.18L696.05,67.28z"/>
	<path class="st1" d="M716.25,65.14l-0.47,2.14c-0.67,0.23-1.36,0.34-2.09,0.34c-0.88,0-1.55-0.19-2.01-0.58
		c-0.46-0.39-0.69-1.03-0.69-1.94c-0.63,0.79-1.49,1.41-2.56,1.85c-1.07,0.44-2.16,0.66-3.27,0.66c-1.68,0-3.01-0.39-3.98-1.17
		c-0.98-0.78-1.36-1.91-1.15-3.38c0.18-1.29,0.91-2.41,2.18-3.35c1.27-0.94,3-1.59,5.21-1.96l4.63-0.75l0.13-0.95
		c0.16-1.13-0.06-2.04-0.67-2.72c-0.61-0.68-1.53-1.02-2.78-1.02c-1.13,0-2.15,0.27-3.06,0.82c-0.91,0.54-1.66,1.35-2.26,2.42
		l-1.8-1.46c0.63-1.27,1.62-2.28,2.96-3.03c1.34-0.75,2.84-1.12,4.5-1.12c2.02,0,3.57,0.49,4.66,1.46c1.09,0.98,1.49,2.42,1.22,4.32
		l-1.19,8.37c-0.06,0.41,0,0.71,0.18,0.92s0.49,0.31,0.94,0.31C715.32,65.31,715.78,65.25,716.25,65.14z M709.46,64.22
		c1.13-0.68,1.77-1.56,1.92-2.65l0.33-2.35l-3.91,0.71c-1.56,0.27-2.75,0.66-3.57,1.17c-0.82,0.51-1.29,1.16-1.4,1.96
		c-0.1,0.7,0.1,1.24,0.59,1.62s1.22,0.56,2.2,0.56C707.05,65.24,708.33,64.9,709.46,64.22z"/>
	<path class="st1" d="M730.16,50.27l-0.92,2.65c-0.5-0.29-1.2-0.44-2.08-0.44c-0.73,0-1.46,0.21-2.22,0.63
		c-0.75,0.42-1.41,1.05-1.97,1.9c-0.56,0.85-0.93,1.88-1.1,3.08l-1.3,9.18h-2.72l2.41-17.01h2.21l-0.02,2.79
		c1.25-2.09,3.21-3.13,5.89-3.13C729.16,49.93,729.76,50.05,730.16,50.27z"/>
	<path class="st1" d="M737.2,58.88l-4.12,3.61l-0.68,4.79h-2.72l3.52-24.83h2.72l-2.36,16.63l10.06-8.81h3.4l-7.57,6.63l5.57,10.37
		h-3.3L737.2,58.88z"/>
	<path class="st1" d="M761.83,59.8h-12.82c-0.09,1.72,0.3,3.06,1.15,4.01s2.06,1.43,3.62,1.43c1.25,0,2.32-0.21,3.2-0.65
		c0.89-0.43,1.54-1.05,1.95-1.87l2.11,1.19c-0.85,1.2-1.89,2.12-3.11,2.76c-1.22,0.63-2.72,0.95-4.49,0.95
		c-2.56,0-4.46-0.78-5.7-2.35c-1.24-1.57-1.66-3.73-1.27-6.5c0.39-2.77,1.4-4.93,3.01-6.5c1.62-1.56,3.71-2.35,6.27-2.35
		c1.59,0,2.91,0.35,3.97,1.05c1.06,0.7,1.79,1.66,2.21,2.86c0.42,1.2,0.52,2.55,0.31,4.05C762.15,58.53,762.01,59.16,761.83,59.8z
		 M751.6,53.64c-1.04,0.88-1.78,2.13-2.21,3.74h10.31c0.04-1.59-0.3-2.83-1.04-3.72c-0.74-0.9-1.82-1.34-3.25-1.34
		C753.92,52.31,752.65,52.76,751.6,53.64z"/>
	<path class="st1" d="M774.1,66.09c-1.28,1.02-2.81,1.53-4.61,1.53c-1.38,0-2.46-0.37-3.23-1.12c-0.77-0.75-1.05-1.89-0.85-3.43
		l1.48-10.44h-3.4l0.33-2.35h3.4l0.58-4.08l2.83-0.75l-0.69,4.83h6.29l-0.33,2.35h-6.29l-1.42,9.97c-0.12,0.82,0.03,1.43,0.43,1.85
		c0.4,0.42,0.99,0.63,1.76,0.63c1.09,0,2.11-0.42,3.07-1.26L774.1,66.09z"/>
	<path class="st1" d="M791.89,52.3c1.17,1.58,1.56,3.74,1.17,6.48c-0.39,2.74-1.39,4.9-3.01,6.48s-3.62,2.36-6,2.36
		c-1.25,0-2.33-0.27-3.23-0.82s-1.57-1.27-1.99-2.18l-1.39,9.79h-2.72l3.43-24.15h2.38l-0.25,2.96c0.64-1,1.52-1.8,2.64-2.4
		c1.12-0.6,2.33-0.9,3.65-0.9C788.95,49.93,790.72,50.72,791.89,52.3z M788.25,63.49c1.12-1.17,1.82-2.74,2.1-4.71
		c0.28-1.97,0.03-3.54-0.76-4.71c-0.79-1.17-2.01-1.75-3.66-1.75c-1.63,0-3.01,0.57-4.13,1.7c-1.13,1.13-1.82,2.65-2.09,4.56
		l-0.06,0.41c-0.27,1.9,0,3.42,0.8,4.56c0.8,1.13,2.02,1.7,3.65,1.7C785.74,65.24,787.13,64.65,788.25,63.49z"/>
	<path class="st1" d="M798.35,62.72c-0.12,0.86-0.08,1.46,0.14,1.79c0.21,0.33,0.67,0.49,1.38,0.49c0.48,0,0.89-0.03,1.26-0.1
		c0.36-0.07,0.79-0.19,1.29-0.37l-0.81,2.62c-0.79,0.32-1.66,0.48-2.58,0.48c-1.38,0-2.36-0.37-2.92-1.12
		c-0.56-0.75-0.73-1.89-0.51-3.43l2.93-20.61h2.72L798.35,62.72z"/>
	<path class="st1" d="M819.1,65.14l-0.47,2.14c-0.67,0.23-1.36,0.34-2.09,0.34c-0.88,0-1.55-0.19-2.01-0.58
		c-0.46-0.39-0.69-1.03-0.69-1.94c-0.63,0.79-1.49,1.41-2.56,1.85c-1.07,0.44-2.16,0.66-3.27,0.66c-1.68,0-3.01-0.39-3.98-1.17
		c-0.98-0.78-1.36-1.91-1.15-3.38c0.18-1.29,0.91-2.41,2.18-3.35c1.27-0.94,3-1.59,5.21-1.96l4.63-0.75l0.13-0.95
		c0.16-1.13-0.06-2.04-0.67-2.72c-0.61-0.68-1.53-1.02-2.78-1.02c-1.13,0-2.15,0.27-3.06,0.82c-0.91,0.54-1.66,1.35-2.26,2.42
		l-1.8-1.46c0.63-1.27,1.62-2.28,2.96-3.03c1.34-0.75,2.84-1.12,4.5-1.12c2.02,0,3.57,0.49,4.66,1.46c1.09,0.98,1.49,2.42,1.22,4.32
		l-1.19,8.37c-0.06,0.41,0,0.71,0.18,0.92s0.49,0.31,0.94,0.31C818.17,65.31,818.63,65.25,819.1,65.14z M812.31,64.22
		c1.13-0.68,1.77-1.56,1.92-2.65l0.33-2.35l-3.91,0.71c-1.56,0.27-2.75,0.66-3.57,1.17c-0.82,0.51-1.29,1.16-1.4,1.96
		c-0.1,0.7,0.1,1.24,0.59,1.62c0.49,0.37,1.22,0.56,2.2,0.56C809.9,65.24,811.18,64.9,812.31,64.22z"/>
	<path class="st1" d="M834.48,51.11c1.06,0.78,1.81,1.9,2.26,3.35l-2.76,1.22c-0.41-2.24-1.76-3.37-4.05-3.37
		c-1.7,0-3.11,0.57-4.24,1.72c-1.13,1.15-1.83,2.73-2.12,4.75c-0.29,2.02-0.03,3.6,0.77,4.74c0.8,1.14,2.05,1.72,3.75,1.72
		c1.31,0,2.42-0.3,3.31-0.9s1.54-1.47,1.95-2.6l2.39,0.88c-0.82,1.59-1.9,2.82-3.24,3.69c-1.35,0.87-2.91,1.31-4.68,1.31
		c-2.56,0-4.46-0.78-5.7-2.35c-1.24-1.57-1.66-3.73-1.27-6.5c0.39-2.77,1.43-4.93,3.12-6.5s3.81-2.35,6.37-2.35
		C832.04,49.93,833.42,50.32,834.48,51.11z"/>
	<path class="st1" d="M853.36,59.8h-12.82c-0.09,1.72,0.3,3.06,1.15,4.01s2.06,1.43,3.62,1.43c1.25,0,2.32-0.21,3.2-0.65
		c0.89-0.43,1.54-1.05,1.95-1.87l2.11,1.19c-0.85,1.2-1.89,2.12-3.11,2.76c-1.22,0.63-2.72,0.95-4.49,0.95
		c-2.56,0-4.46-0.78-5.7-2.35c-1.24-1.57-1.66-3.73-1.27-6.5c0.39-2.77,1.4-4.93,3.01-6.5c1.62-1.56,3.71-2.35,6.27-2.35
		c1.59,0,2.91,0.35,3.97,1.05c1.06,0.7,1.79,1.66,2.21,2.86c0.42,1.2,0.52,2.55,0.31,4.05C853.67,58.53,853.54,59.16,853.36,59.8z
		 M843.13,53.64c-1.04,0.88-1.78,2.13-2.21,3.74h10.31c0.04-1.59-0.3-2.83-1.04-3.72c-0.74-0.9-1.82-1.34-3.25-1.34
		C845.44,52.31,844.17,52.76,843.13,53.64z"/>
</g>
<line class="st2" x1="286.98" y1="12.5" x2="286.98" y2="97.5"/>
<line class="st2" x1="556.17" y1="12.5" x2="556.17" y2="97.5"/>
</svg>
